<svg width="265" height="186" viewBox="0 0 265 186" fill="none" xmlns="http://www.w3.org/2000/svg">
<path opacity="0.51" d="M106.715 26.7894C106.137 26.7444 105.542 26.7594 104.983 26.6411C104.075 26.448 103.192 26.5927 102.275 26.3617C101.757 26.2306 101.165 26.3179 100.606 26.277C98.7093 26.1356 96.8057 25.9429 94.9151 25.8431C93.6623 25.7768 92.4294 25.9116 91.1796 25.8186C89.8964 25.7233 88.6833 25.8123 87.4406 25.8262C86.1559 25.8393 84.8807 25.919 83.5859 25.8519C82.5567 25.7998 81.4849 25.6761 80.4916 25.2993C79.7042 25.0006 79.4788 24.6983 79.8809 24.2583C80.252 23.8503 80.677 23.4123 81.2736 23.1722C82.7201 22.5897 84.2834 22.1494 86.1579 22.1287C87.3817 22.1147 88.5612 21.9298 89.7615 21.824C89.975 21.8064 90.1923 21.7987 90.412 21.801C91.7744 21.8076 93.1385 21.8184 94.5027 21.8279C95.0071 21.8321 95.51 21.8117 96.015 21.8486C97.6903 21.9748 99.2873 21.6672 100.992 21.9798C102.051 21.7322 103.241 22.2468 104.366 22.0253C104.946 21.9118 105.821 22.2044 106.548 22.3652C107.134 22.4975 107.737 22.5596 108.324 22.5485C109.061 22.5609 109.806 22.6295 110.546 22.7532C111.58 22.8943 112.609 23.0862 113.642 23.2354C114.652 23.3812 115.666 23.5369 116.674 23.6241C117.75 23.717 118.801 23.945 119.862 24.1091C120.961 24.2802 122.093 24.6505 123.142 24.6457C124.606 24.6389 126.018 24.9774 127.45 25.1191C129.069 25.2804 130.689 25.7326 132.308 25.8979C133.036 25.972 133.657 26.1538 134.328 26.3049C134.864 26.4264 135.433 26.4348 135.987 26.5088C136.511 26.5784 137.035 26.6561 137.555 26.7508C137.998 26.8328 138.433 26.968 138.877 27.0393C140.413 27.2687 141.941 27.5506 143.456 27.8841C144.074 28.0272 144.751 27.9879 145.366 28.1347C146.458 28.3972 147.533 28.6869 148.662 28.7078C148.736 28.7092 148.833 28.7019 148.879 28.729C150.041 29.4038 151.437 29.2782 152.711 29.5704C153.497 29.7507 154.288 29.7826 155.079 30.1063C155.578 30.3107 156.268 30.2772 156.896 30.4409C158.441 30.8439 160.032 31.13 161.599 31.4751C162.521 31.6784 163.436 31.9038 164.352 32.1212C164.463 32.1471 164.615 32.2239 164.674 32.2014C165.369 31.9487 165.809 32.4037 166.369 32.5846C167.188 32.8277 168.018 33.0451 168.857 33.236C169.803 33.4754 170.748 33.7147 171.697 33.945C172.993 34.2609 174.296 34.5627 175.592 34.8839C175.92 34.9651 176.224 35.0999 176.545 35.2019C177.069 35.3912 177.608 35.5556 178.157 35.6935C179.582 35.993 180.86 36.5316 182.174 37.0197C182.52 37.1354 182.873 37.2376 183.232 37.326C183.583 37.4242 183.939 37.5123 184.285 37.6179C184.387 37.648 184.477 37.7686 184.554 37.7679C185.852 37.7756 186.607 38.6454 187.693 38.8906C189.22 39.2352 190.536 39.8757 191.972 40.3399C192.947 40.6789 193.892 41.0659 194.795 41.4973C195.54 41.8346 196.216 42.2281 197.106 42.3831C197.442 42.4412 197.787 42.6552 198.058 42.8435C198.595 43.2178 199.271 43.4103 199.893 43.6818C201.183 44.2439 202.414 44.8744 203.665 45.481C204.348 45.8118 204.929 46.2456 205.719 46.4672C205.823 46.5066 205.92 46.5544 206.008 46.6093C206.719 46.9727 207.255 47.4377 208.118 47.7355C208.975 48.031 209.645 48.6464 210.369 49.1394C210.878 49.4864 211.377 49.8238 212.075 49.9843C212.26 50.0236 212.432 50.0948 212.573 50.19C213.443 50.8499 214.73 51.2336 215.373 52.0431C215.463 52.1305 215.583 52.2041 215.721 52.2564C217.488 53.0452 218.898 54.103 220.41 55.0808C221.122 55.5422 221.719 56.0829 222.402 56.5671C222.719 56.7934 223.13 56.9643 223.474 57.177C224.49 57.7792 225.351 58.487 226.012 59.2629C226.094 59.3632 226.308 59.5009 226.436 59.5036C226.904 59.5119 227.115 59.6586 227.268 59.9488C227.329 60.0637 227.586 60.1548 227.76 60.2513C227.905 60.3312 228.143 60.3895 228.198 60.4805C228.675 61.2791 229.662 61.8544 230.442 62.5188C230.49 62.5599 230.569 62.5879 230.615 62.63C231.991 63.8863 233.358 65.1455 234.745 66.3967C234.967 66.5966 235.325 66.7408 235.536 66.9445C236.519 67.8914 237.485 68.8453 238.434 69.8062C239.085 70.4635 239.721 71.1254 240.328 71.7966C241.258 72.8266 242.187 73.8565 243.052 74.904C243.555 75.5122 243.915 76.1589 244.374 76.7797C244.665 77.1718 245.03 77.5464 245.347 77.9328C245.814 78.5005 246.288 79.0677 246.719 79.6435C246.853 79.8209 246.816 80.0368 246.924 80.2238C247.259 80.8085 247.641 81.3866 247.972 81.9707C248.555 82.9954 249.348 83.9834 249.635 85.0593C249.818 85.745 250.212 86.4293 250.519 87.113C250.834 87.817 251.182 88.5176 251.47 89.2243C251.62 89.5955 251.957 89.9321 251.896 90.3521C251.836 90.7641 252.065 91.2284 252.209 91.6681C252.348 92.0892 252.565 92.507 252.706 92.9271C252.753 93.1498 252.783 93.3723 252.796 93.5936C252.872 93.9891 252.825 94.414 253.076 94.7729C253.712 95.6806 253.465 96.5455 253.571 97.4263C253.667 98.2198 253.691 99.0096 253.719 99.8C253.735 100.208 253.682 100.609 253.68 101.016C253.675 101.529 253.813 102.072 253.676 102.554C253.427 103.412 253.661 104.36 253.12 105.16C253.104 105.206 253.105 105.256 253.121 105.306C253.352 106.761 252.898 108.108 252.545 109.47C252.486 109.702 252.56 109.961 252.505 110.193C252.391 110.676 252.25 111.155 252.08 111.625C251.94 112.012 251.656 112.354 251.887 112.82C251.978 113.006 251.805 113.232 251.72 113.431C251.484 113.971 251.194 114.5 250.99 115.048C250.65 115.958 250.424 116.899 250.033 117.793C249.514 118.982 248.91 120.147 248.292 121.305C247.981 121.888 247.533 122.427 247.189 123.002C246.887 123.511 246.7 124.062 246.365 124.558C245.534 125.793 244.659 127.013 243.776 128.229C243.597 128.475 243.271 128.663 243.078 128.905C242.368 129.792 241.702 130.698 240.984 131.581C240.706 131.923 240.34 132.227 240.011 132.546C239.973 132.583 239.882 132.602 239.868 132.642C239.501 133.561 238.469 134.16 237.685 134.877C236.22 136.218 234.795 137.579 233.064 138.771C232.163 139.392 231.54 140.19 230.377 140.644C229.72 141.641 228.256 142.117 227.172 142.839C226.405 143.35 225.623 143.853 224.864 144.368C224.452 144.647 224.09 144.959 223.403 144.985C223.292 144.991 223.193 145.023 223.124 145.075C222.499 145.633 221.672 146.033 220.789 146.406C220.01 146.733 219.337 147.156 218.608 147.529C217.93 147.875 217.25 148.221 216.553 148.55C216.111 148.759 215.625 148.932 215.176 149.135C214.616 149.387 214.078 149.661 213.52 149.915C212.812 150.236 212.118 150.576 211.365 150.855C209.792 151.439 208.186 151.987 206.594 152.552C204.577 153.267 202.593 154.017 200.539 154.692C199.364 155.077 198.072 155.333 196.847 155.663C195.867 155.927 194.91 156.222 193.93 156.488C192.392 156.906 190.92 157.4 189.287 157.714C188.539 157.857 187.769 158.008 187.036 158.188C186.309 158.367 185.612 158.583 184.886 158.761C183.404 159.127 181.921 159.491 180.421 159.83C179.358 160.07 178.278 160.289 177.181 160.485C175.099 160.856 173.003 161.206 170.913 161.565C170.844 161.576 170.754 161.575 170.708 161.604C169.876 162.132 168.644 161.99 167.584 162.138C166.539 162.286 165.447 162.382 164.479 162.632C163.832 162.8 163.15 162.786 162.491 162.868C161.725 162.964 160.972 163.091 160.203 163.178C157.034 163.536 153.846 163.863 150.69 164.251C149.842 164.336 148.977 164.383 148.102 164.392C147.08 164.427 146.097 164.584 145.091 164.676C144.447 164.736 143.798 164.782 143.143 164.816C142.136 164.868 141.122 164.905 140.112 164.948C138.476 165.018 136.843 165.095 135.206 165.153C133.348 165.218 131.492 165.296 129.62 165.312C127.595 165.329 125.53 165.21 123.525 165.288C122.267 165.339 120.982 165.292 119.695 165.147C119.619 165.137 119.544 165.14 119.477 165.156C118.215 165.532 116.777 165.222 115.416 165.182C113.349 165.12 111.27 165.007 109.193 164.887C108.183 164.829 107.17 164.735 106.159 164.605C103.701 164.287 101.243 163.938 98.7872 163.6C96.7109 163.314 94.6092 163.125 92.5669 162.703C90.6891 162.316 88.8031 162.116 86.9312 161.771C86.2306 161.654 85.5363 161.504 84.8542 161.32C84.1334 161.108 83.3742 160.999 82.6323 161.002C82.3293 161.001 81.992 160.875 81.6775 160.789C80.4543 160.456 79.2544 160.101 77.9841 159.852C76.4831 159.557 74.9506 159.3 73.5028 158.753C72.4223 158.345 71.2218 158.112 70.0763 157.798C69.5271 157.647 68.9677 157.512 68.4388 157.329C66.2464 156.573 63.9475 155.998 61.8415 155.087C61.0765 154.756 60.2018 154.563 59.4084 154.26C58.0298 153.734 56.6763 153.171 55.3081 152.627C54.2662 152.213 53.2099 151.816 52.1778 151.39C51.7875 151.229 51.4559 150.994 51.078 150.816C49.5328 150.084 47.9726 149.373 46.5129 148.553C45.7939 148.149 44.9495 147.852 44.194 147.474C43.4005 147.078 42.6308 146.657 41.8793 146.224C40.8846 145.65 39.9269 145.046 38.9371 144.466C38.0479 143.946 37.1267 143.449 36.2423 142.925C35.7685 142.638 35.3165 142.336 34.8886 142.02C33.8995 141.301 32.9106 140.599 31.7253 139.998C31.034 139.648 30.5842 139.074 29.9882 138.623C29.2058 138.032 28.3655 137.47 27.5808 136.879C26.9497 136.404 26.3972 135.884 25.7502 135.418C24.2905 134.37 23.2766 133.094 21.6385 132.136C21.5239 132.069 21.4624 131.96 21.3709 131.874C19.8933 130.493 18.4025 129.116 16.9404 127.727C16.5975 127.37 16.2806 127.004 15.9908 126.631C15.9518 126.584 15.9213 126.536 15.8779 126.492C15.1379 125.726 14.3432 124.979 13.6771 124.192C13.1634 123.587 12.5283 123.014 12.1874 122.349C12.0194 122.022 12.0018 121.573 11.2757 121.404C11.1937 121.385 11.1094 121.234 11.0979 121.148C10.9825 120.327 10.2969 119.603 9.73943 118.86C9.19102 118.131 8.70367 117.401 8.49572 116.618C8.41393 116.312 8.0854 116.01 7.95142 115.7C7.34395 114.306 6.61096 112.925 6.28407 111.505C6.04371 110.464 5.6224 109.422 5.32113 108.379C5.2599 108.172 5.4219 107.963 5.39718 107.748C5.29329 106.842 5.15584 105.935 5.03317 105.028C5.00015 104.856 4.98467 104.684 4.98683 104.514C5.06476 103.524 5.13042 102.53 5.24975 101.546C5.36302 100.616 5.54445 99.698 5.68256 98.7721C5.76926 98.197 5.79624 97.6104 5.90971 97.0406C6.09911 96.1074 6.31336 95.1778 6.56042 94.2558C6.82344 93.2656 7.10923 92.2787 7.43596 91.302C7.68098 90.5699 8.01603 89.8605 8.28973 89.1353C8.40012 88.8407 8.41028 88.5204 8.53886 88.2326C9.11678 86.9374 9.71175 85.6466 10.3238 84.3601C10.6279 83.7208 10.979 83.0953 11.2995 82.4599C11.4099 82.2414 11.4653 82.0065 11.5858 81.7922C11.8136 81.3874 12.0635 80.9914 12.3157 80.5942C12.7892 79.8498 13.2487 79.0992 13.7545 78.3676C14.9812 76.5957 16.1959 74.8178 17.4892 73.0707C18.3944 71.8471 19.3844 70.6551 20.4043 69.4784C21.1737 68.5891 22.0655 67.7533 22.879 66.8827C24.0222 65.6564 25.1292 64.4152 26.2764 63.1909C26.6557 62.7855 27.129 62.4239 27.5263 62.0266C28.3256 61.2286 29.0592 60.3964 29.9041 59.6229C30.707 58.8865 31.5801 58.1823 32.492 57.5069C33.2794 56.9171 33.973 56.2729 34.5643 55.582C34.7235 55.4324 34.9035 55.2938 35.1024 55.1676C36.1531 54.3594 37.1861 53.5404 38.2564 52.7446C38.7103 52.4073 39.2644 52.1323 39.7381 51.8061C40.6943 51.1482 41.6036 50.4588 42.5755 49.8114C43.8858 48.9384 45.096 48.0004 46.5654 47.2299C47.5255 46.7273 48.315 46.0935 49.2383 45.5624C50.6357 44.7581 52.0682 43.978 53.5179 43.214C54.6506 42.6162 55.8701 42.0883 56.9815 41.4737C58.8191 40.4695 60.7813 39.5628 62.854 38.76C63.6258 38.4577 64.3195 38.0812 65.0666 37.7548C65.8095 37.4291 66.5601 37.1087 67.3318 36.8076C68.9805 36.1655 70.6215 35.5168 72.3081 34.9129C73.5543 34.4677 74.8761 34.0989 76.1489 33.6793C77.1162 33.3598 78.061 33.0152 79.015 32.6814C79.5905 32.4803 80.1398 32.2494 80.7449 32.0853C82.8575 31.5092 84.9703 30.9319 87.1177 30.4031C89.0984 29.9161 91.1048 29.4641 93.1367 29.0472C95.0635 28.6486 97.0111 28.2722 98.9898 27.956C101.35 27.5782 103.699 27.1675 106.192 27.0472C106.385 27.0229 106.57 26.9843 106.743 26.9321C106.73 26.8839 106.718 26.836 106.705 26.7865L106.715 26.7894ZM126.413 29.9132C127.672 30.9947 128.853 31.9343 129.896 32.9268C131.109 34.0802 132.227 35.2685 133.796 36.2576C134.076 36.4516 134.309 36.6718 134.484 36.9081C134.763 37.2524 134.677 37.6347 134.327 37.7716C133.918 37.9309 133.528 37.7888 133.192 37.576C132.321 37.0232 131.389 36.4966 130.625 35.885C129.369 34.8799 128.233 33.8166 127.037 32.7811C125.808 31.6865 124.177 30.8033 122.338 30.2376C120.163 29.5755 117.904 29.2663 115.663 28.9855C114.084 28.7887 112.503 28.7133 110.955 28.7611C108.31 28.8645 105.729 29.1463 103.251 29.6022C101.597 29.8919 99.8836 30.09 98.2568 30.419C96.286 30.8164 94.3506 31.2735 92.447 31.7665C89.4692 32.5374 86.4685 33.2886 83.5953 34.1795C80.6785 35.0844 77.8847 36.1324 75.0709 37.1516C73.7714 37.6229 72.5472 38.1732 71.2987 38.6968C70.6855 38.9534 70.1528 39.3008 69.4864 39.4871C67.7911 39.9607 66.5335 40.813 65.0054 41.4295C64.0035 41.8349 62.9959 42.234 62.1504 42.7848C61.45 43.2404 60.5735 43.5761 59.7985 43.9839C58.8805 44.4669 58.0697 45.046 57.0682 45.4474C55.5075 46.0727 54.4233 47.0321 52.9881 47.7412C52.255 48.1223 51.5699 48.5401 50.9376 48.9918C49.5451 49.9421 48.1901 50.9157 46.8133 51.8765C45.726 52.6345 44.6014 53.3693 43.5476 54.1485C42.171 55.165 40.8258 56.2011 39.5121 57.2568C38.5376 58.0424 37.6363 58.8687 36.7193 59.6859C35.5734 60.7081 34.4176 61.7248 33.3195 62.7718C32.2966 63.747 31.3436 64.7558 30.3606 65.7506C29.6405 66.4802 28.921 67.2103 28.2021 67.941C27.7309 68.417 27.2113 68.8736 26.7902 69.3719C25.9308 70.3904 25.1175 71.4294 24.2942 72.4642C24.0036 72.8284 23.7595 73.2104 23.4649 73.5727C23.0633 74.0658 22.591 74.5321 22.2278 75.039C21.5217 76.0219 20.8622 77.0212 20.2007 78.0202C19.3927 79.2392 18.4747 80.4269 17.856 81.7038C17.4636 82.5133 16.9648 83.2961 16.6525 84.1419C16.4069 84.8034 15.9851 85.4604 15.6206 86.1124C14.7818 87.5561 14.1396 89.0628 13.7006 90.6167C13.6575 90.7787 13.5874 90.9367 13.532 91.0955C13.3699 91.5535 13.1872 92.007 13.0498 92.47C12.8852 93.0268 12.8291 93.6105 12.5993 94.148C12.1476 95.208 11.7971 96.2668 11.8111 97.4339C11.8215 98.4062 11.4177 99.3376 11.2466 100.295C11.1149 101.031 11.0347 101.775 10.9836 102.522C10.9392 103.172 10.9655 103.829 10.9626 104.483C10.9622 104.677 10.9555 104.87 10.9677 105.065C10.9967 105.506 10.9963 105.947 11.0778 106.39C11.2206 107.173 11.0247 107.937 11.3725 108.73C11.5959 109.239 11.796 109.751 11.9875 110.264C12.0097 110.387 12.018 110.51 12.0122 110.631C12.0271 110.852 12.07 111.075 12.1405 111.297C12.5804 112.398 13.029 113.498 13.5029 114.596C13.7294 115.176 14.0117 115.75 14.3478 116.316C14.9053 117.192 15.6409 118.035 16.1514 118.916C16.9589 120.308 18.113 121.61 19.1985 122.923C20.1467 124.07 21.4382 125.118 22.3892 126.277C22.4431 126.349 22.5167 126.414 22.6057 126.47C22.9847 126.698 23.2727 126.984 23.436 127.293C23.6091 127.573 24.1996 127.769 24.4147 128.05C25.2735 129.168 26.8194 129.952 27.8696 130.975C28.4412 131.532 29.1598 132.034 29.8216 132.556C30.4331 133.037 31.0402 133.521 31.6764 133.989C32.6857 134.735 33.7221 135.464 34.7359 136.208C35.668 136.892 36.4841 137.673 37.537 138.253C38.7168 138.903 39.7048 139.652 40.7617 140.367C41.2804 140.719 41.7715 141.09 42.311 141.424C43.1478 141.942 44.1511 142.305 44.9632 142.875C45.6603 143.363 46.6372 143.679 47.4739 144.084C48.2765 144.473 48.8428 145.06 49.7715 145.355C50.1917 145.498 50.5959 145.665 50.9783 145.856C52.8997 146.762 54.8137 147.679 56.7347 148.589C56.9039 148.654 57.0771 148.714 57.2535 148.767C57.7946 148.973 58.3455 149.166 58.8671 149.395C59.3586 149.61 59.796 149.898 60.2979 150.096C60.9471 150.351 61.6511 150.529 62.3075 150.776C63.1335 151.087 63.9113 151.472 64.7509 151.756C66.1076 152.214 67.503 152.607 68.8729 153.041C69.6025 153.272 70.2993 153.573 71.0388 153.772C72.3237 154.119 73.6266 154.416 74.9265 154.722C76.6714 155.132 78.316 155.764 80.1322 156.043C81.7084 156.285 83.2528 156.758 84.8218 157.084C86.1358 157.358 87.4647 157.573 88.7897 157.803C89.1819 157.871 89.5852 157.876 89.9748 157.949C90.9722 158.136 91.9656 158.342 92.9587 158.549C94.4967 158.871 96.0997 158.814 97.5982 159.36C98.5269 159.256 99.4571 159.518 100.386 159.641C101.729 159.819 103.071 160.011 104.414 160.18C105.3 160.291 106.192 160.406 107.075 160.464C108.113 160.531 109.146 160.42 110.184 160.786C110.291 160.822 110.407 160.834 110.513 160.82C112.297 160.499 114.239 160.952 116.092 160.897C117.269 160.862 118.569 161.06 119.806 161.095C120.764 161.121 121.717 161.125 122.668 161.12C123.163 161.117 123.64 161.048 124.134 161.049C124.788 161.051 125.46 161.122 126.111 161.11C127.083 161.092 128.036 160.998 129.009 160.986C130.254 160.971 131.523 161.041 132.763 161.011C133.826 160.984 134.858 160.847 135.917 160.797C136.573 160.766 137.263 160.84 137.917 160.806C139.178 160.739 140.42 160.615 141.678 160.537C143.727 160.41 145.803 160.35 147.83 160.17C149.495 160.023 151.082 159.695 152.82 159.707C153.039 159.691 153.249 159.656 153.446 159.604C154.13 159.488 154.798 159.248 155.499 159.287C156.352 159.333 156.953 159.086 157.663 158.963C157.833 158.934 158.005 158.802 158.136 158.833C159.353 159.132 160.151 158.533 161.223 158.52C161.847 158.512 162.532 158.517 163.042 158.353C163.891 158.081 164.87 158.07 165.752 157.875C166.584 157.691 167.498 157.627 168.358 157.479C169.771 157.235 171.167 156.963 172.571 156.704C173.357 156.559 174.158 156.433 174.924 156.26C175.362 156.162 175.727 155.86 176.161 155.872C177.55 155.912 178.622 155.457 179.853 155.264C181.159 155.057 182.34 154.633 183.592 154.326C184.044 154.215 184.63 154.243 185.002 154.074C185.992 153.623 187.219 153.464 188.276 153.082C189.709 152.563 191.401 152.308 192.952 151.904C194.074 151.612 195.15 151.259 196.252 150.941C196.471 150.877 196.804 150.895 196.935 150.79C197.675 150.202 198.912 150.113 199.825 149.688C200.797 149.235 202.063 149.027 203.001 148.553C203.534 148.295 204.11 148.074 204.721 147.893C206.093 147.447 207.414 146.947 208.678 146.394C210.025 145.809 211.283 145.146 212.583 144.518C212.815 144.38 213.08 144.268 213.371 144.184C214.122 144.03 214.58 143.658 215.081 143.314C215.292 143.168 215.425 142.902 215.685 142.868C216.977 142.699 217.343 141.722 218.644 141.581C219.271 140.713 220.724 140.406 221.6 139.7C222.094 139.303 222.705 138.972 223.244 138.6C223.506 138.42 223.717 138.21 223.969 138.023C224.791 137.417 225.812 136.951 226.528 136.259C227.322 135.489 228.437 134.88 229.257 134.12C230.455 133.009 231.763 131.946 232.642 130.678C232.779 130.48 233.089 130.348 233.269 130.163C233.879 129.537 234.561 128.937 235.028 128.255C235.309 127.816 235.647 127.399 236.039 127.006C236.213 126.841 236.441 126.68 236.503 126.486C236.638 125.966 237.012 125.508 237.576 125.169C237.698 125.063 237.78 124.937 237.814 124.8C237.94 124.539 238.031 124.269 238.173 124.014C238.453 123.516 239.199 123.157 238.883 122.479C238.852 122.415 239.03 122.332 239.095 122.252C239.572 121.671 240.089 121.104 240.505 120.501C240.966 119.829 240.753 118.939 241.644 118.398C241.727 118.348 241.679 118.211 241.711 118.117C241.961 117.392 242.171 116.654 242.477 115.943C242.991 114.754 243.585 113.587 244.109 112.402C244.297 111.981 244.38 111.53 244.509 111.092C244.556 110.928 244.6 110.763 244.641 110.598C244.865 109.713 245.089 108.829 245.311 107.944C245.342 107.851 245.365 107.757 245.38 107.661C245.415 107.005 245.206 106.307 245.72 105.733C245.771 105.671 245.783 105.595 245.752 105.52C245.441 104.924 245.984 104.424 245.772 103.829C245.674 103.507 245.68 103.186 245.788 102.887C246.108 101.895 246.455 100.924 246.244 99.8318C246.09 99.0297 246.197 98.2336 246.181 97.4327C246.172 97.3112 246.153 97.1891 246.122 97.0669C246.037 96.6375 246.048 96.1964 245.842 95.7802C245.419 94.9258 245.885 94.1314 245.349 93.2332C244.702 92.1432 244.394 90.9705 244.186 89.8386C243.929 88.6068 243.425 87.3779 242.686 86.1849C241.919 84.8898 241.292 83.5734 240.503 82.2819C239.894 81.2845 239.314 80.2861 238.554 79.3233C237.731 78.2806 236.747 77.2697 236.074 76.2018C235.229 74.8599 233.773 73.741 232.741 72.4745C232.4 72.0656 232.016 71.6696 231.593 71.29C230.923 70.6772 230.186 70.0914 229.522 69.4769C228.691 68.7088 227.912 67.9184 227.097 67.1444C226.693 66.749 226.26 66.3653 225.8 65.9948C225.004 65.3743 223.974 64.8332 223.395 64.1526C222.651 63.2777 220.938 62.9748 220.55 61.9533C220.532 61.9071 220.341 61.8829 220.255 61.8293C220.019 61.6922 219.795 61.5457 219.586 61.3907C218.78 60.7647 218.089 60.0485 217.16 59.5278C216.193 58.9897 215.284 58.4057 214.442 57.7817C213.388 56.9995 212.15 56.3203 210.982 55.6026C210.527 55.3232 209.929 55.1041 209.615 54.7806C209.223 54.3748 208.693 54.1578 208.155 53.8919C207.291 53.4664 206.474 52.995 205.65 52.5319C204.896 52.1077 204.229 51.5553 203.396 51.2662C202.156 50.8365 201.361 50.0356 200.047 49.6546C198.781 49.2876 197.902 48.4471 196.61 47.9704C195.345 47.503 194.149 46.8667 192.907 46.3213C192.051 45.9614 191.173 45.6307 190.276 45.3309C188.949 44.8653 187.726 44.2303 186.393 43.7775C184.577 43.1578 182.833 42.4131 180.925 41.9426C180.099 41.7401 179.439 41.1532 178.473 41.2477C177.767 40.4626 176.291 40.7394 175.48 40.0867C175.439 40.0549 175.233 40.0542 175.181 40.0886C174.935 40.2531 174.759 40.0817 174.511 40.0191C173.611 39.7919 172.877 39.193 171.878 39.2281C171.084 39.2556 170.444 38.8987 169.741 38.7169C168.405 38.3722 167.118 37.8377 165.772 37.6042C164.918 37.4557 164.126 37.2147 163.302 37.0342C162.553 36.8701 161.838 36.5794 161.044 36.6856C160.881 36.7077 160.637 36.5818 160.433 36.519C159.624 36.2686 158.827 35.921 158 35.7888C157.208 35.6619 156.445 35.5853 155.741 35.2338C155.578 35.1569 155.39 35.1124 155.204 35.1066C154.252 35.0992 153.282 34.954 152.361 34.6809C151.385 34.3869 150.332 34.2523 149.314 34.0376C148.946 33.9599 148.592 33.8367 148.223 33.7657C146.96 33.5255 145.693 33.3063 144.432 33.0636C143.728 32.9279 143.018 32.6665 142.334 32.6343C141.482 32.5935 140.714 32.3439 139.908 32.1998C139.124 32.0591 138.373 32.0944 137.536 31.8073C136.411 31.4219 135.118 31.3061 133.89 31.113C132.878 30.9549 131.857 30.8713 130.842 30.7236C129.963 30.5944 129.085 30.4249 128.209 30.2637C127.632 30.1577 127.06 30.0363 126.412 29.9062L126.413 29.9132Z" fill="#ACACAC"/>
<path opacity="0.51" d="M111.119 18.2872C110.541 18.2422 109.946 18.2572 109.387 18.1389C108.479 17.9458 107.596 18.0905 106.679 17.8595C106.162 17.7284 105.569 17.8157 105.01 17.7748C103.113 17.6334 101.21 17.4407 99.3192 17.3409C98.0664 17.2746 96.8335 17.4094 95.5837 17.3164C94.3005 17.2211 93.0874 17.3101 91.8447 17.324C90.56 17.3371 89.2848 17.4168 87.9901 17.3497C86.9608 17.2976 85.889 17.1739 84.8957 16.7971C84.1083 16.4984 83.8829 16.1961 84.285 15.7561C84.6561 15.3481 85.0811 14.9101 85.6777 14.67C87.1242 14.0875 88.6875 13.6472 90.562 13.6265C91.7858 13.6125 92.9654 13.4276 94.1656 13.3218C94.3791 13.3042 94.5964 13.2965 94.8161 13.2988C96.1785 13.3053 97.5426 13.3162 98.9068 13.3257C99.4112 13.3299 99.9141 13.3095 100.419 13.3464C102.094 13.4726 103.691 13.165 105.397 13.4776C106.455 13.23 107.645 13.7446 108.77 13.5231C109.351 13.4096 110.225 13.7022 110.952 13.863C111.539 13.9953 112.141 14.0574 112.728 14.0463C113.465 14.0587 114.211 14.1273 114.95 14.251C115.984 14.3921 117.013 14.584 118.046 14.7332C119.056 14.879 120.07 15.0347 121.078 15.1219C122.154 15.2148 123.206 15.4428 124.267 15.6069C125.365 15.7779 126.498 16.1483 127.546 16.1435C129.011 16.1367 130.423 16.4752 131.854 16.6169C133.473 16.7782 135.093 17.2304 136.712 17.3957C137.44 17.4698 138.061 17.6516 138.733 17.8027C139.268 17.9242 139.837 17.9326 140.391 18.0066C140.915 18.0762 141.439 18.1539 141.959 18.2486C142.402 18.3306 142.837 18.4658 143.281 18.5371C144.817 18.7665 146.345 19.0484 147.86 19.3819C148.478 19.525 149.155 19.4857 149.77 19.6325C150.862 19.895 151.937 20.1847 153.066 20.2056C153.14 20.207 153.237 20.1997 153.283 20.2268C154.445 20.9016 155.841 20.776 157.115 21.0682C157.901 21.2485 158.692 21.2804 159.483 21.6041C159.983 21.8085 160.672 21.7749 161.3 21.9387C162.846 22.3417 164.436 22.6278 166.003 22.9729C166.925 23.1762 167.84 23.4016 168.757 23.619C168.867 23.6449 169.019 23.7217 169.078 23.6992C169.773 23.4465 170.213 23.9015 170.773 24.0824C171.592 24.3255 172.422 24.5429 173.261 24.7338C174.207 24.9732 175.152 25.2125 176.101 25.4428C177.397 25.7587 178.7 26.0605 179.996 26.3817C180.324 26.4629 180.628 26.5977 180.95 26.6997C181.473 26.889 182.012 27.0534 182.561 27.1913C183.986 27.4908 185.264 28.0294 186.578 28.5175C186.924 28.6332 187.277 28.7354 187.636 28.8238C187.987 28.922 188.343 29.0101 188.689 29.1157C188.791 29.1458 188.881 29.2664 188.959 29.2657C190.256 29.2734 191.011 30.1432 192.097 30.3884C193.624 30.733 194.94 31.3735 196.376 31.8377C197.351 32.1767 198.296 32.5637 199.199 32.9951C199.944 33.3324 200.62 33.7259 201.51 33.8809C201.846 33.939 202.191 34.153 202.462 34.3413C203 34.7156 203.675 34.9081 204.297 35.1796C205.587 35.7417 206.818 36.3722 208.07 36.9788C208.752 37.3096 209.333 37.7434 210.123 37.965C210.227 38.0044 210.324 38.0522 210.412 38.1071C211.123 38.4705 211.659 38.9355 212.522 39.2333C213.379 39.5288 214.05 40.1442 214.773 40.6372C215.282 40.9842 215.781 41.3216 216.479 41.4821C216.664 41.5214 216.836 41.5926 216.978 41.6878C217.847 42.3477 219.134 42.7314 219.777 43.5409C219.867 43.6283 219.987 43.7019 220.126 43.7542C221.892 44.543 223.302 45.6008 224.814 46.5786C225.526 47.04 226.123 47.5807 226.806 48.0648C227.124 48.2912 227.534 48.4621 227.878 48.6748C228.894 49.277 229.755 49.9848 230.416 50.7607C230.498 50.861 230.712 50.9987 230.84 51.0014C231.308 51.0097 231.519 51.1564 231.672 51.4466C231.733 51.5615 231.99 51.6526 232.165 51.7491C232.309 51.829 232.547 51.8873 232.602 51.9783C233.08 52.7769 234.066 53.3522 234.846 54.0166C234.894 54.0577 234.973 54.0857 235.019 54.1278C236.395 55.3841 237.762 56.6433 239.149 57.8945C239.371 58.0944 239.729 58.2386 239.94 58.4423C240.923 59.3892 241.889 60.3431 242.838 61.304C243.489 61.9613 244.125 62.6232 244.732 63.2944C245.662 64.3244 246.592 65.3543 247.456 66.4018C247.959 67.01 248.319 67.6567 248.778 68.2775C249.069 68.6696 249.434 69.0442 249.751 69.4306C250.218 69.9983 250.692 70.5655 251.123 71.1413C251.257 71.3187 251.22 71.5346 251.328 71.7216C251.663 72.3063 252.045 72.8844 252.376 73.4685C252.959 74.4932 253.752 75.4812 254.039 76.5571C254.222 77.2428 254.616 77.9271 254.923 78.6108C255.239 79.3148 255.586 80.0154 255.874 80.7221C256.024 81.0933 256.362 81.4299 256.3 81.8499C256.24 82.2619 256.469 82.7262 256.614 83.1659C256.752 83.587 256.969 84.0048 257.11 84.4249C257.157 84.6476 257.187 84.8701 257.2 85.0914C257.276 85.4869 257.229 85.9118 257.48 86.2707C258.116 87.1784 257.869 88.0433 257.976 88.9241C258.071 89.7176 258.095 90.5074 258.123 91.2978C258.139 91.7061 258.087 92.107 258.084 92.5139C258.08 93.0266 258.217 93.5698 258.08 94.0518C257.831 94.9098 258.065 95.8583 257.525 96.6579C257.509 96.7042 257.509 96.7538 257.525 96.8033C257.756 98.2591 257.302 99.6053 256.949 100.968C256.89 101.199 256.964 101.459 256.909 101.691C256.795 102.174 256.654 102.653 256.484 103.123C256.344 103.51 256.06 103.852 256.291 104.318C256.382 104.504 256.21 104.729 256.124 104.929C255.888 105.469 255.598 105.998 255.395 106.546C255.054 107.456 254.828 108.397 254.437 109.291C253.918 110.479 253.314 111.644 252.696 112.803C252.385 113.386 251.937 113.925 251.593 114.5C251.291 115.009 251.104 115.56 250.769 116.056C249.939 117.291 249.063 118.51 248.18 119.726C248.001 119.973 247.675 120.161 247.483 120.402C246.772 121.29 246.106 122.196 245.388 123.079C245.11 123.421 244.744 123.725 244.415 124.044C244.377 124.08 244.287 124.1 244.272 124.139C243.905 125.059 242.873 125.658 242.089 126.375C240.624 127.715 239.199 129.076 237.468 130.269C236.567 130.89 235.944 131.688 234.781 132.142C234.124 133.139 232.66 133.615 231.576 134.337C230.809 134.848 230.028 135.351 229.268 135.866C228.857 136.144 228.494 136.457 227.807 136.483C227.696 136.489 227.597 136.521 227.528 136.573C226.903 137.131 226.076 137.531 225.193 137.904C224.414 138.231 223.741 138.654 223.012 139.026C222.334 139.373 221.654 139.718 220.957 140.048C220.515 140.257 220.029 140.429 219.58 140.633C219.02 140.885 218.483 141.159 217.924 141.412C217.216 141.734 216.522 142.073 215.769 142.353C214.196 142.937 212.59 143.485 210.998 144.05C208.981 144.765 206.997 145.515 204.943 146.189C203.768 146.575 202.476 146.831 201.251 147.161C200.271 147.425 199.315 147.72 198.334 147.986C196.797 148.404 195.324 148.897 193.691 149.212C192.943 149.355 192.173 149.505 191.44 149.686C190.713 149.865 190.016 150.08 189.29 150.259C187.808 150.625 186.325 150.988 184.826 151.328C183.762 151.568 182.682 151.786 181.585 151.983C179.503 152.354 177.408 152.703 175.317 153.063C175.248 153.074 175.158 153.073 175.113 153.102C174.28 153.63 173.048 153.488 171.988 153.636C170.943 153.784 169.852 153.88 168.884 154.13C168.236 154.298 167.554 154.283 166.895 154.366C166.129 154.462 165.377 154.589 164.608 154.676C161.438 155.034 158.25 155.361 155.094 155.749C154.246 155.834 153.381 155.881 152.506 155.89C151.484 155.925 150.501 156.082 149.496 156.174C148.852 156.233 148.202 156.28 147.547 156.314C146.54 156.366 145.526 156.403 144.516 156.446C142.88 156.515 141.247 156.592 139.61 156.651C137.752 156.716 135.896 156.794 134.024 156.81C131.999 156.827 129.934 156.708 127.929 156.786C126.671 156.837 125.386 156.789 124.099 156.645C124.023 156.635 123.948 156.638 123.881 156.654C122.619 157.03 121.181 156.72 119.82 156.68C117.753 156.618 115.674 156.505 113.597 156.384C112.587 156.327 111.574 156.233 110.563 156.103C108.105 155.784 105.647 155.436 103.191 155.098C101.115 154.811 99.0133 154.623 96.971 154.201C95.0932 153.814 93.2073 153.614 91.3353 153.269C90.6347 153.152 89.9404 153.001 89.2584 152.818C88.5375 152.606 87.7783 152.497 87.0364 152.499C86.7335 152.499 86.3961 152.373 86.0816 152.287C84.8584 151.954 83.6585 151.599 82.3882 151.35C80.8872 151.055 79.3547 150.798 77.9069 150.25C76.8265 149.843 75.6259 149.609 74.4804 149.296C73.9312 149.145 73.3718 149.01 72.843 148.827C70.6505 148.07 68.3516 147.496 66.2456 146.585C65.4806 146.254 64.6059 146.06 63.8126 145.758C62.4339 145.232 61.0805 144.669 59.7122 144.125C58.6703 143.711 57.614 143.314 56.5819 142.888C56.1916 142.727 55.86 142.492 55.4821 142.313C53.9369 141.582 52.3767 140.871 50.917 140.05C50.198 139.646 49.3536 139.35 48.5981 138.972C47.8046 138.576 47.035 138.155 46.2835 137.722C45.2888 137.148 44.331 136.544 43.3412 135.964C42.452 135.444 41.5308 134.947 40.6464 134.422C40.1726 134.136 39.7206 133.834 39.2927 133.518C38.3036 132.799 37.3147 132.097 36.1294 131.496C35.4381 131.146 34.9883 130.572 34.3924 130.121C33.6099 129.529 32.7696 128.967 31.985 128.377C31.3538 127.902 30.8013 127.382 30.1543 126.916C28.6946 125.867 27.6807 124.591 26.0426 123.634C25.928 123.567 25.8665 123.457 25.775 123.372C24.2974 121.99 22.8066 120.614 21.3445 119.225C21.0016 118.868 20.6847 118.502 20.3949 118.128C20.3559 118.082 20.3255 118.034 20.282 117.989C19.542 117.224 18.7473 116.477 18.0812 115.69C17.5675 115.084 16.9324 114.512 16.5915 113.847C16.4235 113.52 16.4059 113.071 15.6799 112.902C15.5978 112.883 15.5135 112.732 15.502 112.646C15.3866 111.825 14.701 111.1 14.1435 110.358C13.5951 109.629 13.1078 108.899 12.8998 108.116C12.818 107.809 12.4895 107.508 12.3555 107.198C11.7481 105.804 11.0151 104.423 10.6882 103.003C10.4478 101.961 10.0265 100.92 9.72524 99.8772C9.66401 99.6699 9.82601 99.4604 9.8013 99.2462C9.6974 98.3401 9.55995 97.4331 9.43728 96.5255C9.40426 96.3535 9.38878 96.182 9.39095 96.0121C9.46888 95.0216 9.53454 94.0279 9.65386 93.0436C9.76714 92.114 9.94856 91.1958 10.0867 90.2699C10.1734 89.6948 10.2004 89.1082 10.3138 88.5384C10.5032 87.6052 10.7175 86.6756 10.9645 85.7536C11.2276 84.7634 11.5133 83.7765 11.8401 82.7998C12.0851 82.0677 12.4201 81.3583 12.6938 80.6331C12.8042 80.3385 12.8144 80.0182 12.943 79.7304C13.5209 78.4352 14.1159 77.1444 14.7279 75.8579C15.032 75.2186 15.3831 74.5931 15.7036 73.9577C15.814 73.7392 15.8695 73.5043 15.9899 73.29C16.2177 72.8852 16.4676 72.4892 16.7198 72.092C17.1933 71.3476 17.6529 70.597 18.1587 69.8654C19.3853 68.0935 20.6 66.3156 21.8933 64.5685C22.7985 63.3449 23.7885 62.1529 24.8084 60.9762C25.5778 60.0869 26.4696 59.2511 27.2832 58.3805C28.4263 57.1542 29.5333 55.913 30.6805 54.6887C31.0598 54.2833 31.5331 53.9217 31.9304 53.5244C32.7297 52.7264 33.4633 51.8942 34.3082 51.1207C35.1111 50.3843 35.9842 49.6801 36.8961 49.0047C37.6835 48.4149 38.3771 47.7707 38.9685 47.0798C39.1276 46.9302 39.3076 46.7916 39.5065 46.6654C40.5572 45.8572 41.5902 45.0382 42.6606 44.2424C43.1144 43.9051 43.6686 43.6301 44.1422 43.3039C45.0984 42.646 46.0077 41.9566 46.9796 41.3092C48.2899 40.4362 49.5001 39.4982 50.9695 38.7277C51.9296 38.2251 52.7191 37.5913 53.6424 37.0602C55.0398 36.2559 56.4723 35.4758 57.922 34.7118C59.0547 34.114 60.2742 33.5861 61.3856 32.9715C63.2232 31.9673 65.1855 31.0606 67.2581 30.2578C68.0299 29.9555 68.7236 29.579 69.4707 29.2526C70.2136 28.9269 70.9642 28.6065 71.7359 28.3054C73.3846 27.6633 75.0256 27.0146 76.7122 26.4107C77.9584 25.9655 79.2803 25.5967 80.5531 25.1771C81.5203 24.8576 82.4651 24.513 83.4191 24.1792C83.9946 23.9781 84.544 23.7472 85.149 23.5831C87.2616 23.007 89.3744 22.4297 91.5218 21.9009C93.5026 21.4139 95.5089 20.9619 97.5408 20.545C99.4677 20.1464 101.415 19.77 103.394 19.4538C105.754 19.076 108.103 18.6653 110.596 18.545C110.789 18.5207 110.974 18.4821 111.148 18.4299C111.134 18.3817 111.122 18.3338 111.109 18.2843L111.119 18.2872ZM130.817 21.411C132.076 22.4925 133.257 23.4321 134.3 24.4246C135.513 25.578 136.631 26.7663 138.2 27.7554C138.48 27.9494 138.713 28.1696 138.888 28.4059C139.167 28.7502 139.081 29.1325 138.731 29.2694C138.323 29.4287 137.932 29.2866 137.596 29.0738C136.725 28.521 135.793 27.9944 135.029 27.3828C133.773 26.3777 132.637 25.3144 131.441 24.2789C130.212 23.1843 128.581 22.3011 126.742 21.7354C124.567 21.0733 122.308 20.7641 120.067 20.4833C118.488 20.2865 116.907 20.2111 115.359 20.2589C112.714 20.3623 110.133 20.6441 107.655 21.1C106.001 21.3897 104.288 21.5878 102.661 21.9168C100.69 22.3142 98.7547 22.7713 96.8511 23.2643C93.8734 24.0352 90.8726 24.7864 87.9994 25.6773C85.0826 26.5822 82.2888 27.6302 79.475 28.6494C78.1755 29.1207 76.9514 29.671 75.7028 30.1946C75.0896 30.4512 74.5569 30.7986 73.8905 30.9849C72.1952 31.4585 70.9376 32.3108 69.4096 32.9273C68.4076 33.3327 67.4 33.7318 66.5545 34.2826C65.8541 34.7382 64.9776 35.0739 64.2026 35.4817C63.2846 35.9647 62.4738 36.5438 61.4723 36.9451C59.9117 37.5705 58.8274 38.5299 57.3922 39.239C56.6591 39.6201 55.9741 40.0379 55.3417 40.4896C53.9493 41.4399 52.5942 42.4135 51.2174 43.3743C50.1302 44.1323 49.0055 44.8671 47.9517 45.6463C46.5751 46.6628 45.2299 47.6989 43.9162 48.7546C42.9417 49.5402 42.0404 50.3665 41.1234 51.1837C39.9775 52.2059 38.8217 53.2226 37.7236 54.2696C36.7007 55.2448 35.7477 56.2536 34.7647 57.2484C34.0446 57.978 33.3251 58.7081 32.6062 59.4388C32.135 59.9148 31.6154 60.3714 31.1943 60.8697C30.3349 61.8882 29.5216 62.9272 28.6983 63.962C28.4077 64.3262 28.1636 64.7082 27.869 65.0705C27.4674 65.5636 26.9951 66.0299 26.6319 66.5368C25.9259 67.5197 25.2663 68.519 24.6048 69.518C23.7969 70.737 22.8788 71.9247 22.2601 73.2016C21.8677 74.0111 21.3689 74.7939 21.0566 75.6397C20.811 76.3012 20.3892 76.9582 20.0247 77.6102C19.1859 79.0539 18.5437 80.5606 18.1048 82.1145C18.0616 82.2765 17.9916 82.4345 17.9361 82.5933C17.774 83.0513 17.5914 83.5048 17.4539 83.9678C17.2893 84.5246 17.2332 85.1083 17.0034 85.6458C16.5517 86.7058 16.2012 87.7646 16.2153 88.9317C16.2256 89.904 15.8218 90.8354 15.6507 91.7931C15.519 92.5285 15.4388 93.2729 15.3877 94.0203C15.3433 94.6695 15.3696 95.3265 15.3667 95.9805C15.3663 96.1747 15.3596 96.3678 15.3718 96.5625C15.4008 97.004 15.4004 97.4452 15.4819 97.8877C15.6247 98.6707 15.4288 99.4346 15.7766 100.228C16 100.737 16.2001 101.249 16.3916 101.762C16.4138 101.885 16.4221 102.007 16.4163 102.128C16.4312 102.35 16.4741 102.573 16.5446 102.795C16.9845 103.896 17.4331 104.996 17.907 106.094C18.1335 106.673 18.4158 107.248 18.752 107.814C19.3094 108.689 20.045 109.533 20.5556 110.414C21.3631 111.806 22.5171 113.108 23.6026 114.421C24.5508 115.567 25.8423 116.616 26.7933 117.775C26.8472 117.846 26.9208 117.912 27.0098 117.968C27.3888 118.196 27.6769 118.482 27.8401 118.791C28.0133 119.071 28.6037 119.267 28.8189 119.547C29.6776 120.666 31.2235 121.449 32.2737 122.473C32.8453 123.03 33.5639 123.532 34.2257 124.054C34.8372 124.535 35.4443 125.019 36.0805 125.487C37.0898 126.233 38.1262 126.962 39.14 127.706C40.0721 128.39 40.8882 129.171 41.9412 129.751C43.121 130.401 44.1089 131.15 45.1658 131.865C45.6845 132.216 46.1756 132.588 46.7151 132.922C47.5519 133.44 48.5552 133.803 49.3673 134.373C50.0644 134.861 51.0413 135.177 51.878 135.582C52.6806 135.971 53.2469 136.557 54.1756 136.853C54.5958 136.995 55 137.163 55.3824 137.353C57.3038 138.26 59.2178 139.177 61.1389 140.086C61.308 140.152 61.4812 140.212 61.6576 140.265C62.1987 140.47 62.7496 140.663 63.2712 140.893C63.7627 141.108 64.2001 141.396 64.702 141.594C65.3512 141.849 66.0552 142.027 66.7116 142.273C67.5376 142.585 68.3154 142.97 69.155 143.254C70.5117 143.711 71.9072 144.104 73.277 144.538C74.0066 144.77 74.7034 145.07 75.4429 145.27C76.7278 145.616 78.0307 145.914 79.3306 146.22C81.0756 146.629 82.7201 147.262 84.5363 147.54C86.1125 147.782 87.6569 148.256 89.2259 148.582C90.5399 148.856 91.8688 149.071 93.1938 149.301C93.5861 149.369 93.9894 149.374 94.3789 149.447C95.3764 149.634 96.3697 149.84 97.3629 150.047C98.9008 150.369 100.504 150.312 102.002 150.857C102.931 150.753 103.861 151.016 104.79 151.139C106.134 151.317 107.475 151.509 108.818 151.678C109.704 151.789 110.596 151.904 111.479 151.961C112.517 152.029 113.55 151.918 114.588 152.284C114.695 152.32 114.811 152.331 114.917 152.318C116.701 151.997 118.643 152.45 120.496 152.394C121.674 152.36 122.973 152.558 124.21 152.592C125.169 152.619 126.121 152.623 127.073 152.618C127.567 152.615 128.044 152.546 128.538 152.547C129.192 152.549 129.864 152.62 130.515 152.608C131.487 152.589 132.44 152.496 133.413 152.484C134.658 152.469 135.927 152.539 137.167 152.509C138.231 152.482 139.262 152.345 140.321 152.295C140.977 152.264 141.667 152.338 142.321 152.303C143.582 152.237 144.824 152.113 146.082 152.034C148.131 151.908 150.207 151.848 152.234 151.668C153.9 151.521 155.486 151.193 157.225 151.205C157.443 151.189 157.653 151.154 157.85 151.102C158.534 150.986 159.202 150.746 159.903 150.785C160.756 150.831 161.357 150.584 162.067 150.461C162.237 150.432 162.409 150.3 162.54 150.331C163.757 150.63 164.555 150.031 165.627 150.018C166.251 150.01 166.936 150.015 167.447 149.85C168.295 149.578 169.274 149.568 170.156 149.372C170.989 149.189 171.902 149.125 172.762 148.977C174.176 148.733 175.571 148.461 176.975 148.202C177.761 148.056 178.562 147.931 179.328 147.758C179.766 147.66 180.131 147.358 180.566 147.37C181.954 147.41 183.026 146.955 184.257 146.762C185.563 146.555 186.744 146.131 187.996 145.824C188.448 145.713 189.034 145.74 189.406 145.571C190.396 145.121 191.623 144.962 192.68 144.58C194.113 144.06 195.805 143.806 197.356 143.402C198.478 143.11 199.554 142.757 200.656 142.439C200.875 142.375 201.208 142.393 201.339 142.287C202.079 141.699 203.316 141.611 204.229 141.186C205.201 140.733 206.467 140.525 207.405 140.051C207.938 139.793 208.514 139.572 209.125 139.391C210.497 138.945 211.818 138.444 213.082 137.892C214.43 137.307 215.687 136.643 216.987 136.016C217.219 135.878 217.484 135.766 217.775 135.682C218.526 135.527 218.984 135.155 219.485 134.811C219.697 134.666 219.829 134.399 220.089 134.366C221.381 134.196 221.748 133.22 223.049 133.079C223.675 132.211 225.129 131.904 226.004 131.198C226.498 130.8 227.109 130.47 227.648 130.098C227.91 129.918 228.121 129.708 228.373 129.521C229.195 128.915 230.216 128.449 230.932 127.757C231.726 126.986 232.841 126.378 233.661 125.618C234.859 124.507 236.167 123.444 237.046 122.176C237.184 121.978 237.493 121.845 237.673 121.66C238.283 121.035 238.966 120.435 239.432 119.753C239.713 119.314 240.051 118.896 240.443 118.504C240.617 118.339 240.845 118.178 240.907 117.984C241.043 117.464 241.416 117.006 241.98 116.667C242.102 116.561 242.184 116.435 242.219 116.298C242.344 116.037 242.435 115.766 242.577 115.512C242.857 115.014 243.603 114.655 243.287 113.977C243.256 113.912 243.434 113.83 243.499 113.75C243.976 113.169 244.493 112.602 244.909 111.999C245.37 111.327 245.157 110.437 246.048 109.896C246.131 109.846 246.083 109.708 246.115 109.615C246.365 108.889 246.575 108.152 246.881 107.441C247.395 106.252 247.989 105.085 248.514 103.9C248.701 103.479 248.785 103.028 248.913 102.589C248.961 102.425 249.004 102.261 249.045 102.096C249.269 101.211 249.493 100.326 249.715 99.4415C249.747 99.3489 249.77 99.2544 249.784 99.1584C249.819 98.5023 249.61 97.8046 250.124 97.2304C250.175 97.1689 250.187 97.093 250.156 97.0179C249.845 96.4219 250.388 95.9213 250.176 95.3264C250.078 95.005 250.084 94.684 250.192 94.385C250.512 93.3924 250.859 92.4215 250.648 91.3296C250.494 90.5275 250.601 89.7314 250.585 88.9305C250.576 88.809 250.557 88.6869 250.526 88.5647C250.441 88.1352 250.452 87.6942 250.246 87.278C249.823 86.4236 250.289 85.6292 249.753 84.731C249.106 83.641 248.798 82.4683 248.591 81.3364C248.333 80.1046 247.829 78.8757 247.091 77.6827C246.323 76.3875 245.696 75.0712 244.907 73.7797C244.298 72.7823 243.718 71.7838 242.958 70.8211C242.135 69.7784 241.151 68.7675 240.478 67.6996C239.633 66.3577 238.177 65.2388 237.145 63.9723C236.804 63.5634 236.421 63.1674 235.997 62.7878C235.327 62.175 234.59 61.5892 233.926 60.9747C233.096 60.2066 232.316 59.4162 231.501 58.6422C231.098 58.2468 230.665 57.8631 230.204 57.4926C229.408 56.8721 228.378 56.331 227.799 55.6504C227.055 54.7755 225.342 54.4726 224.954 53.4511C224.936 53.4049 224.746 53.3807 224.659 53.3271C224.423 53.19 224.199 53.0435 223.99 52.8885C223.184 52.2625 222.493 51.5463 221.564 51.0256C220.597 50.4875 219.688 49.9035 218.846 49.2795C217.792 48.4973 216.555 47.8181 215.386 47.1004C214.931 46.821 214.333 46.6019 214.019 46.2784C213.627 45.8726 213.097 45.6556 212.559 45.3897C211.695 44.9642 210.878 44.4928 210.054 44.0297C209.3 43.6055 208.633 43.0531 207.8 42.764C206.56 42.3343 205.765 41.5334 204.451 41.1524C203.185 40.7854 202.306 39.9449 201.014 39.4682C199.749 39.0008 198.553 38.3645 197.311 37.8191C196.455 37.4592 195.577 37.1285 194.68 36.8287C193.353 36.3631 192.13 35.7281 190.798 35.2753C188.981 34.6556 187.238 33.9109 185.329 33.4404C184.504 33.2379 183.843 32.651 182.877 32.7455C182.171 31.9604 180.695 32.2372 179.884 31.5845C179.843 31.5527 179.637 31.552 179.585 31.5864C179.339 31.7509 179.163 31.5794 178.915 31.5169C178.015 31.2897 177.281 30.6908 176.283 30.7259C175.489 30.7534 174.849 30.3965 174.145 30.2147C172.809 29.87 171.522 29.3355 170.176 29.102C169.322 28.9535 168.53 28.7125 167.707 28.532C166.957 28.3679 166.242 28.0772 165.448 28.1834C165.286 28.2055 165.041 28.0796 164.837 28.0168C164.028 27.7664 163.231 27.4188 162.404 27.2866C161.613 27.1597 160.849 27.0831 160.145 26.7316C159.982 26.6547 159.794 26.6102 159.608 26.6044C158.656 26.597 157.686 26.4518 156.765 26.1787C155.79 25.8847 154.736 25.7501 153.718 25.5354C153.35 25.4577 152.996 25.3345 152.627 25.2635C151.364 25.0233 150.097 24.8041 148.836 24.5614C148.132 24.4257 147.422 24.1643 146.738 24.1321C145.886 24.0913 145.119 23.8417 144.312 23.6976C143.528 23.5569 142.777 23.5922 141.94 23.3051C140.815 22.9197 139.522 22.8039 138.294 22.6108C137.282 22.4527 136.261 22.3691 135.246 22.2213C134.367 22.0922 133.489 21.9227 132.613 21.7615C132.036 21.6555 131.464 21.5341 130.816 21.404L130.817 21.411Z" fill="#ACACAC"/>
</svg>
