<svg width="220" height="397" viewBox="0 0 220 397" fill="none" xmlns="http://www.w3.org/2000/svg">
<path opacity="0.71" d="M159.189 270.097C159.735 270.69 160.11 270.825 160.025 270.4C159.936 269.974 159.831 268.737 159.597 268.573C159.362 268.408 158.792 267.594 158.519 267.431C158.244 267.266 158.011 265.975 157.649 265.456C157.288 264.938 155.911 263.427 155.611 262.824C155.308 262.22 153.702 261.342 153.634 260.92L153.433 260.613C153.292 260.4 152.872 260.423 152.659 260.227C152.539 260.115 152.658 259.64 152.544 259.553L152.027 259.157C151.42 258.789 150.777 258.196 150.6 257.842C150.421 257.488 148.762 256.136 147.826 255.383L147.147 254.607L146.493 253.858C145.843 253.76 145.332 253.363 145.359 252.978L145.217 252.811L144.889 252.43C144.434 252.118 143.452 251.521 142.702 251.104C141.954 250.685 139.783 248.943 139.314 248.652L138.933 248.32L138.561 247.996C138.114 247.893 137.688 247.769 137.613 247.719L137.554 247.725C137.425 247.741 137.231 247.747 137.197 247.837L137.129 248.002C137.142 248.222 137.265 248.727 137.401 249.124C137.538 249.523 138.199 251.02 138.584 251.414L138.916 251.801L139.323 252.277C139.701 252.841 140.23 253.936 140.494 254.711L140.989 255.326L141.367 255.798C141.148 256.345 141.068 257.072 141.189 257.411L141.363 257.494L142.239 257.907C142.639 258.567 143.224 259.579 143.54 260.159L143.895 260.627C144.297 261.155 144.985 261.603 144.13 262.199C144.101 262.22 144.311 262.845 144.453 262.889L145.078 263.081C145.755 263.187 146.284 263.445 146.255 263.654C146.225 263.863 146.033 264.255 145.88 264.122C145.73 263.989 145.593 263.968 146.181 264.601C146.77 265.234 148.534 266.216 148.264 266.425C147.995 266.635 147.774 267.279 148.262 267.478C148.753 267.678 150.207 268.204 150.456 268.402C150.707 268.601 151.338 269.278 151.482 269.116C151.628 268.953 152.913 269.569 153.606 269.906L154.292 269.872C154.675 269.853 155.226 269.77 155.43 270.005C155.867 270.508 156.131 270.48 156.642 270.332C157.159 270.181 157.883 270.606 158.368 270.417L159.189 270.097ZM56.5415 74.4345C56.5883 73.9709 56.775 73.8072 56.9572 74.0713C57.1387 74.3338 58.0949 75.4133 58.664 75.8645L59.2118 75.6932C59.9952 75.4489 60.3976 76.2973 61.0139 76.5124C61.5871 76.7116 62.1127 77.1711 62.6585 77.5163C63.1946 77.8545 63.7712 78.132 64.2533 78.5498C65.187 79.3572 66.1849 79.862 67.2785 79.7882C67.7277 79.7574 68.0444 79.6428 68.2465 80.2663C68.407 80.7633 68.6766 80.7928 69.0655 80.6271C69.1703 80.5833 69.4621 81.1028 69.6663 81.1299C69.8655 81.1555 70.2008 80.7177 70.2401 80.7595L71.0162 81.5878C72.0406 81.7433 73.1926 81.9472 73.5812 82.0414C73.9675 82.1349 75.9718 83.3258 77.324 84.0863L78.7092 84.3762L79.7553 84.5966C80.8222 85.2916 81.8538 85.6632 82.0485 85.4235L82.1597 85.4682L82.3912 85.5632C82.6081 85.8135 83.4326 86.0975 84.224 86.1968C85.0129 86.2954 87.524 86.4511 88.0554 86.448C88.5868 86.445 90.474 86.1477 91.0878 85.9086C91.7018 85.6654 91.8326 83.3946 91.8365 83.1129C91.8404 82.8312 91.5772 81.9833 91.2318 81.7291C90.8848 81.4756 89.8478 80.052 89.1684 79.3018C88.4882 78.5501 86.1751 76.1172 85.483 75.5933C84.7917 75.0711 81.7114 73.2297 80.2628 72.5008L79.2347 71.2463C79.1764 71.1744 78.9729 71.2788 78.8577 71.226C78.3182 70.9775 77.6597 70.3705 77.2722 70.5054C76.391 70.8119 76.3484 69.609 75.7442 69.5695C75.6461 69.5639 75.5173 69.2864 75.4377 69.2973C74.2809 69.4615 73.2978 68.4996 72.2165 68.2834C71.1034 68.0615 69.9871 68.0431 68.8633 67.7368C67.8935 67.4734 66.8907 67.3407 65.9192 67.3259C65.0107 67.3127 64.1106 67.0435 63.1819 67.0606L62.3465 67.0778C61.3033 66.876 60.2666 66.7668 60.0409 66.8347L60.0028 66.9801C59.7726 67.8574 59.4671 67.8644 58.9018 67.0976C58.8213 66.9891 58.273 67.1846 58.0141 67.3615L57.8133 67.4965C57.587 67.6806 56.9073 68.0593 56.3033 68.3394L55.5062 68.1611L54.9071 68.0271C54.1445 68.3765 53.2179 68.6583 52.848 68.6524C52.4773 68.6448 52.0604 69.8537 51.7722 70.0216C51.484 70.1895 53.0116 71.4773 54.1013 72.0588L54.9518 72.8909C55.3125 73.2432 55.6385 73.6473 56.0143 73.9758L56.5415 74.4345ZM3.47037 3.71973C3.63765 4.03744 3.89258 4.14637 4.03455 3.96362C4.17652 3.78088 4.61826 3.55015 4.54189 4.05884C4.46631 4.56913 3.65675 5.84771 3.94384 5.77828C4.23094 5.70884 5.11865 5.61284 4.85665 5.82123C4.5922 6.02888 4.30188 6.75927 4.59233 7.14163C4.88199 7.52239 5.53329 9.28188 5.6321 10.0403L6.01463 10.6931C6.19208 10.9936 6.20033 11.4049 6.28735 11.7658C6.39175 12.1997 6.69578 12.7649 6.56757 13.0384C6.26514 13.6772 7.05348 13.5143 7.07155 14.0085L7.08601 14.4366C7.51543 14.9534 7.95578 15.9121 8.06155 16.5671L8.31079 17.0885C8.65361 17.8036 9.41418 18.4241 9.5242 19.1129L9.674 20.0669C10.2545 20.646 11.2468 22.0087 11.877 23.0957L12.2981 24.2002C12.6973 25.252 13.0957 26.386 14.1119 27.1211C14.4824 27.3885 14.7951 28.0971 14.8312 28.59C14.8673 29.0829 14.9365 29.2272 15.3029 29.5786C15.7239 29.9818 16.6929 30.3316 16.2423 31.338C16.22 31.3894 16.4084 31.6784 16.4869 31.682C17.1462 31.7113 16.6993 32.3682 16.9847 32.5893C17.3242 32.8526 17.7519 33.0426 17.9883 33.3868L18.1951 33.6922C18.253 34.1579 18.7478 35.2186 19.2938 36.0511C19.8407 36.8813 21.6584 38.9831 21.8865 39.0838L21.8231 39.5139C21.7426 40.0647 22.0494 40.4507 22.5642 40.7918C23.0732 41.1299 23.4675 41.7267 23.8914 42.2323C24.3177 42.7428 24.9032 43.2314 25.08 43.8159C25.2907 44.507 26.0829 44.6458 26.0904 45.3831C26.0905 45.459 26.0228 45.5737 26.0444 45.5965C26.5703 46.1198 27.4582 46.2255 27.5485 47.248L28.7889 49.1886L29.4072 49.6764C30.0767 50.2258 31.2299 51.486 31.971 52.4742L32.5992 53.4104C32.8594 53.7943 32.9721 54.3458 33.5353 53.9748C33.5925 53.9395 33.9792 54.2564 33.9723 54.3558L33.8666 55.7287C34.8749 56.1582 35.9863 56.7585 36.3373 57.0619C36.6858 57.3645 37.9483 58.2708 38.3481 58.4213C38.7471 58.5741 39.4023 60.3835 39.9416 61.1017C40.4825 61.819 43.2903 63.0331 44.1868 63.6558L44.6675 64.7636L44.9307 65.3677C45.7242 65.9374 46.7398 65.5041 47.1897 64.4041L47.772 63.6857C48.4248 62.8832 49.0669 62.0042 49.8051 61.3496C51.4834 59.8609 53.0455 58.1162 55.2311 57.428L56.5797 57.0015C58.0071 56.4028 59.7699 55.7318 60.4989 55.5075L61.0972 55.0146C61.6598 54.55 62.5404 54.4857 63.3082 54.3653L64.0581 54.2462C64.9135 54.2486 65.9046 54.2654 66.2628 54.2853C66.6194 54.3061 67.8314 54.2454 68.1664 54.1554C68.5014 54.0654 69.5073 54.7419 69.7108 54.7593L69.8969 54.7457L71.1827 54.6412C72.8482 55.083 75.1334 55.856 76.2607 56.3583L77.2098 56.3027C77.918 56.2589 78.2773 57.0954 79.0093 56.8815C79.4029 56.7674 80.0703 57.5057 80.6247 57.8305C80.8837 57.9813 81.1644 58.1089 81.4399 58.1713C81.7611 58.2422 82.115 58.1445 82.4062 58.2847C82.5943 58.376 82.1023 58.9541 82.7076 59.063C83.0666 59.1265 83.1672 60.0438 83.7016 59.5558L86.115 60.8444L87.0808 61.4396C88.0371 62.2633 89.6036 63.5291 90.5644 64.2527L91.4775 64.779C92.0304 65.0966 92.3527 65.4806 92.7396 65.9952C93.3004 66.7403 94.1005 67.2687 94.7686 67.9287C95.338 68.4895 96.0605 68.9658 96.0276 69.9656C96.0242 70.0972 96.1603 70.2511 96.2295 70.3954L96.6735 71.2943C97.3502 72.1397 98.1581 73.683 98.4674 74.725L98.8349 75.6412L99.2064 76.5653C99.5445 77.6025 100.009 78.8326 100.238 79.3004C100.467 79.7683 100.263 81.681 100.375 82.4407C100.489 83.2011 100.071 86.6703 99.6218 88.4811L98.868 89.0078L98.2488 89.4375C98.0354 90.1684 97.5306 91.2286 97.1289 91.7964L96.7427 92.3243C96.317 92.9024 95.8616 93.4497 95.4119 94.0042C95.2877 94.1559 95.0386 94.2477 95.0148 94.4178C94.9558 94.8357 95.0756 95.3176 94.9713 95.7068C94.8741 96.0723 94.1883 95.6452 94.1237 96.3456C94.094 96.6845 93.6469 96.9419 93.357 97.1906C92.6443 97.7961 91.9832 98.519 91.1712 98.9278L90.2484 99.3894C89.1297 99.6979 86.7863 100.171 85.0397 100.439L83.4597 100.682L82.2977 100.861C80.8872 100.402 79.0538 99.9226 78.227 99.7935L77.4779 99.213L76.832 98.7114C75.8859 98.5716 74.5631 98.1477 73.8926 97.7726C73.2238 97.3966 70.9841 96.4764 70.457 96.3034C69.9282 96.1312 68.6276 95.4123 68.4437 95.7284C68.2582 96.0454 67.2732 94.6809 66.6533 94.2359C66.0316 93.7918 61.9871 92.6431 59.2918 91.1575L56.9175 89.633C53.9771 87.7478 51.1132 85.6855 48.2286 83.6737L47.7118 83.3116C47.1953 82.8075 46.7886 83.5417 46.8059 84.9453C46.8241 86.3465 47.7152 91.5511 48.1571 93.382L48.6181 95.0334L48.8849 95.9933C49.4525 96.9326 49.9948 98.1188 50.0896 98.6255C50.1827 99.1331 51.149 100.615 51.2805 101.045L51.3037 101.445C51.3338 101.951 52.1867 101.709 51.9761 102.382C51.9516 102.463 52.0096 102.635 52.0754 102.701C52.2802 102.901 53.692 104.916 53.84 105.174C53.9539 105.375 54.2117 105.502 54.2953 105.705C54.7352 106.772 56.2855 107.241 55.8694 108.783L55.8464 108.871C56.0869 109.089 56.8738 109.994 57.5938 110.885C58.3147 111.773 60.4832 113.939 60.9869 113.431L60.7283 114.67L60.5736 115.415C61.0332 115.854 61.899 116.743 62.4954 117.387C63.0901 118.033 65.2472 120.197 65.7878 120.968L66.4092 121.34C67.084 121.745 66.8111 122.586 66.8801 122.575L68.5893 122.295C69.4475 123.819 70.2027 125.171 70.2672 125.302C70.3325 125.434 70.4767 126.011 70.5257 126.266C70.5714 126.522 71.9162 126.785 72.1808 127.4C72.4453 128.016 74.3965 129.825 75.2472 130.528L75.9483 131.259C76.448 131.783 77.1053 132.119 77.4094 132.928C77.5299 133.252 78.1218 133.376 78.4311 133.678L78.6037 133.847C78.6814 134.185 79.2382 134.431 79.8398 134.394L79.6251 135.399C79.606 135.495 80.4411 135.825 80.7649 136.179L81.0269 136.466C81.2426 136.944 81.717 137.628 82.0768 137.983L82.584 138.002C82.791 138.01 83.1334 138.166 83.2069 138.34C83.5376 139.127 84.1343 140.255 84.7151 140.361L85.929 140.581C86.8393 141.538 87.8016 142.474 88.0672 142.664L88.209 142.905C88.5115 143.421 88.6655 144.119 89.4179 143.787C89.4691 143.764 89.7238 144.091 89.8133 144.289C90.1694 145.077 90.5808 145.553 91.4449 145.367C91.9176 145.267 91.5767 145.907 91.6383 145.935L92.323 146.255C92.988 146.783 94.3391 147.886 95.3274 148.707L96.0253 149.599L96.6522 150.399C97.4771 150.998 98.7913 152.022 99.5717 152.674L100.356 153.145C100.694 153.347 100.365 154.435 101.238 153.932C101.394 153.845 101.966 154.532 102.346 154.861L102.788 155.245C103.188 155.735 104.055 156.554 104.715 157.067C105.378 157.578 107.791 159.652 108.802 160.346C109.813 161.037 112.069 164.023 112.437 164.322C112.802 164.622 114.102 165.541 114.402 165.912C114.7 166.285 116.052 167.233 116.333 167.572C116.616 167.91 116.939 169.285 117.006 169.51C117.073 169.734 117.275 169.94 117.192 169.165L117.927 169.01C118.389 168.914 118.578 169.065 118.667 169.509C118.72 169.794 118.64 170.328 118.689 170.345L120.59 170.989C121.334 173.067 121.921 174.578 121.892 174.349C121.864 174.119 122.126 173.863 122.525 174.222C122.924 174.582 124.314 176.061 124.758 176.712L125.265 176.965L125.83 177.25C126.112 177.813 127.221 178.932 128.293 179.734L128.863 180.892L129.264 181.704C129.964 182.026 130.544 182.675 130.553 183.152C130.564 183.627 131.254 184.5 131.724 184.069L132.322 184.971C132.582 185.363 132.971 185.596 132.874 186.152L132.861 186.233C133.012 186.375 134.098 187.214 135.274 188.097L135.68 189.115C135.895 189.656 135.837 190.361 136.143 190.795C136.458 191.245 137.072 191.443 137.541 191.78C138.003 192.11 138.48 192.439 138.889 192.846L139.177 193.132C139.324 193.6 139.38 194.368 139.302 194.842L139.958 194.553C140.041 194.516 140.42 195.069 140.609 195.384L141.199 196.36C141.898 197.579 142.425 198.695 142.369 198.839C142.317 198.984 142.153 199.542 142.195 199.578C142.237 199.617 142.461 199.612 142.597 199.486C142.733 199.358 143.254 199.027 143.344 199.134C143.436 199.239 143.422 200.068 143.347 200.765L144.276 200.454C144.332 200.433 144.724 200.978 144.679 201.101C144.46 201.69 144.965 201.621 145.14 201.859C145.269 202.032 145.082 202.438 145.168 202.701L145.254 202.963C145.489 203.192 145.989 203.619 146.368 203.913C146.747 204.209 148.083 205.609 148.501 206.481L149.188 206.918C149.923 207.386 150.223 207.977 150.154 208.827C150.148 208.912 150.251 209.095 150.315 209.112L151.738 209.475C151.981 210.882 152.066 211.868 151.925 211.67C151.783 211.471 151.295 211.067 151.402 211.561L151.314 211.77C151.051 212.4 151.659 212.27 151.791 212.512C152.027 212.939 152.362 212.808 152.582 212.939L153.196 213.304C153.963 214.172 154.183 214.743 153.682 214.574L153.488 214.614L153.329 214.644C153.197 214.851 153.265 215.262 153.477 215.561L153.643 215.561L154.901 215.573C155.476 216.56 156.165 217.681 156.433 218.065L156.459 218.303L156.555 219.161C157.091 219.795 157.774 220.524 158.077 220.777C158.379 221.032 158.546 222.273 158.724 222.489C158.904 222.707 159.246 223.558 159.415 223.649C159.582 223.739 160.111 224.227 160.102 224.491C160.095 224.754 160.259 225.769 160.488 226.057C160.715 226.344 161.958 227.568 162.723 228.165L162.923 228.829L163.353 230.249C164.341 231.28 165.388 232.908 165.68 233.865L166 234.714L166.181 235.19C166.583 235.631 167.063 236.434 167.24 236.974C167.42 237.515 168.736 239.163 169.257 239.675L169.169 240.316L169.073 240.996C169.431 241.494 169.856 241.977 170.02 242.069L170.017 242.122C169.929 243.712 171.297 244.785 171.56 246.233L171.649 246.732C171.604 247.309 171.734 247.858 171.937 247.949C172.141 248.043 172.893 249.075 172.943 249.94C172.993 250.806 174.049 254.539 174.525 256.626L174.89 258.509C175.038 259.278 175.039 260.082 175.193 260.897L175.36 261.802C175.128 262.836 174.843 264.077 174.727 264.558C174.611 265.039 174.236 266.411 174.142 266.531C174.047 266.651 173.445 266.884 173.279 267.027C173.115 267.172 173.372 268.332 173.446 268.65L173.379 268.684L172.727 269.033C172.729 269.721 173.219 270.599 173.819 270.986C174.417 271.37 174.684 273.658 174.818 273.997C174.951 274.337 175.719 275.409 175.702 276.139L176.458 276.486L176.568 276.535C176.653 276.695 176.968 277.161 177.268 277.571C177.568 277.98 178 279.481 178.068 279.733C178.135 279.986 178.158 280.708 178.227 280.886C178.297 281.062 179.2 282.746 179.993 284.222L180.585 285.622C180.758 286.035 180.759 286.411 181.153 286.801C181.549 287.193 181.928 287.967 181.886 288.474L181.832 289.117C182.109 289.602 182.53 290.387 182.768 290.861L182.966 291.299C183.155 291.723 183.555 292.324 183.443 292.562L183.134 293.214C183.556 293.389 184.148 293.692 184.45 293.889C184.752 294.084 184.628 295.672 184.762 296.3L185.013 296.841L185.244 297.334C185.589 297.794 185.98 298.414 186.113 298.712C186.245 299.009 186.692 300.316 186.912 300.951L187.108 301.529L187.35 302.246C187.588 303.041 187.882 304.007 188.006 304.391C188.129 304.775 188.933 306.063 189.225 306.47C189.517 306.88 190.058 308.438 190.474 309.154C190.89 309.871 191.466 313.14 192.159 314.56L192.361 315.943C192.477 316.723 193.437 316.659 193.346 317.529L193.289 318.07C193.466 318.72 193.813 319.407 194.06 319.596L194.228 319.827C194.568 320.293 195.166 320.812 194.336 321.272C194.303 321.289 194.47 321.939 194.605 321.989L195.378 322.282C195.567 323.058 195.732 324.066 195.748 324.525C195.763 324.985 196.763 325.959 196.761 326.279C196.761 326.599 196.934 327.725 197.15 327.835C197.367 327.946 197.795 328.376 197.444 328.45C197.09 328.524 198.064 329.618 198.254 330.052L198.429 330.462L198.96 331.697C199.574 333.041 199.897 334.749 199.68 335.497L200.523 335.76C201.484 336.06 200.836 336.796 201.103 337.27C201.407 337.81 201.725 338.36 201.522 339.007L201.493 339.1C201.615 339.283 201.963 339.524 202.267 339.636C202.571 339.747 202.819 341.324 203.027 341.951L203.25 342.524C203.471 343.089 203.978 343.594 203.675 344.265C203.639 344.344 203.801 344.667 203.861 344.671L205.134 344.763C205.213 345.868 205.219 347.111 205.149 347.527C205.079 347.944 206.163 349.517 206.5 350.405L206.398 350.925C206.23 351.785 207.004 351.647 207.074 352.109C207.154 352.615 207.176 353.475 207.379 353.562C208.129 353.889 207.736 354.57 208.031 355C208.348 355.461 208.349 355.966 208.401 356.512L208.447 356.974C208.841 357.583 209.488 358.893 209.882 359.885C210.277 360.878 211.361 363.799 211.415 364.168C211.469 364.537 211.835 365.33 211.838 365.654C211.842 365.978 212.53 366.825 212.689 367.105C212.848 367.385 213.056 368.829 212.888 369.631L213.947 369.824L213.993 369.833C214.03 370.387 214.317 371.726 214.629 372.813C214.943 373.897 216.051 377.077 216.112 377.546C216.176 378.014 216.641 378.78 216.761 379.057C216.879 379.334 217.302 380.547 217.472 381.197L217.399 381.732C217.296 382.49 217.045 383.078 218.013 383.601L218.371 383.794C218.608 384.534 218.725 385.686 218.63 386.354L218.381 386.816L217.889 387.73C218.381 388.552 218.948 389.496 219.149 389.828C219.35 390.159 219.916 391.225 219.733 391.362C219.552 391.499 219.264 392.344 219.538 392.903C219.812 393.462 219.134 394.985 219.112 394.534C219.088 394.083 218.932 393.036 218.803 392.989C218.671 392.94 218.02 392.979 217.959 393.3L218.059 393.552C218.406 394.411 217.87 394.525 217.424 394.811C217.051 395.051 216.431 394.556 216.207 395.362L216.083 395.807C215.519 396.125 214.58 396.551 213.997 396.754C213.412 396.956 212.493 395.338 212.312 395.06C212.13 394.781 211.519 393.547 211.208 393.001C210.897 392.455 210.328 390.346 210.011 389.859C209.696 389.374 209.307 387.322 209.037 386.851C208.768 386.382 208.392 385.15 208.047 384.872C207.702 384.593 207.654 382.694 207.244 381.66C206.834 380.623 205.406 377.043 205.014 375.99C204.62 374.937 203.832 371.732 203.79 371.299L203.607 371.012L202.289 368.927C201.466 366.381 200.584 363.583 200.329 362.709L200.042 361.931C199.78 361.219 199.378 360.602 199.387 359.756L199.391 359.223C198.957 358.57 198.377 357.695 198.101 357.279C197.824 356.864 197.448 355.079 197.163 354.65C196.881 354.221 196.576 352.294 196.32 351.616C196.065 350.936 194.859 348.8 194.483 348.256L194.571 347.981C194.772 347.36 194.195 347.209 194.116 346.8C194.029 346.365 193.922 345.921 193.754 345.505C193.546 344.987 193.219 344.51 193.035 343.986C192.893 343.578 193.025 342.895 192.81 342.729C191.964 342.073 192.173 340.995 191.637 340.233C191.321 339.786 191.094 339.251 190.889 338.731L190.712 338.284C190.586 337.793 190.451 337.05 190.415 336.629L190.149 336.258C189.86 335.857 189.509 335.381 189.692 334.742L189.738 334.582C189.308 334.178 188.583 333.201 188.126 332.413C187.669 331.627 187.535 329.222 187.498 329.145C187.462 329.068 186.967 327.922 186.473 326.779C185.978 325.634 184.59 322.073 184.394 321.44C184.197 320.806 183.581 318.741 183.451 318.26L183.29 317.837C183.025 317.136 182.368 316.68 182.27 315.822C182.186 315.094 181.384 314.528 181.516 313.657L181.648 312.799C181.199 311.962 180.641 310.736 180.408 310.07C180.176 309.407 178.893 306.797 178.442 305.657C177.993 304.517 176.676 301.255 176.47 300.968C176.264 300.678 175.979 299.633 175.937 299.305C175.895 298.977 174.781 297.741 174.268 296.867C173.755 295.996 173.245 292.955 173.052 292.481L172.842 292.057L170.999 288.316C168.964 284.208 167.113 280.221 166.887 279.458L166.092 279.213C165.912 279.158 165.704 278.687 165.668 278.404C165.614 277.994 166 277.472 165.358 277.248L164.643 276.996C163.836 276.82 162.82 276.95 162.382 277.285L161.79 277.114C161.675 277.079 161.531 277.418 161.37 277.537L160.973 277.828C160.897 277.444 160.674 277.059 160.474 276.972L160.375 277.033L160.153 277.175C159.95 277.395 159.262 277.584 158.62 277.594C157.98 277.604 156.083 276.864 155.824 276.19L155.215 276.468C154.643 276.732 154.183 276.595 153.638 276.377L153.467 276.309C153.262 276.384 152.72 276.722 152.265 277.061L151.69 276.573L151.533 276.44C151.295 276.411 150.634 276.268 150.061 276.125C149.49 275.98 148.19 274.582 148.039 274.386L147.868 274.271L147.687 274.147C147.469 274.081 146.952 274.007 146.537 273.982C146.122 273.959 145.188 273.581 145.321 272.93L144.391 273.285L144.005 273.435C143.568 273.332 143.157 273.045 143.091 272.794C143.024 272.544 142.159 271.566 141.469 270.907C140.779 270.248 138.547 268.253 138.133 267.792C137.717 267.333 136.378 265.365 135.858 264.509C135.338 263.653 133.116 260.851 132.473 259.861L132.218 258.785L132.06 258.121C131.661 257.497 131.014 256.338 130.623 255.548L130.268 254.829C129.913 254.11 129.557 253.392 129.203 252.673C129.136 252.533 129.021 252.367 129.035 252.244C129.106 251.674 129.57 251.158 128.688 250.588C128.402 250.403 128.566 249.518 128.302 248.9C127.839 247.815 128.221 246.54 127.514 245.44C127.488 245.4 127.643 245.226 127.714 245.116C127.897 244.842 128.031 244.502 128.27 244.309L128.811 243.873C128.445 243.46 128.377 243.137 128.659 243.158L128.8 242.926C129.008 242.584 129.163 242.197 129.34 241.83C129.34 241.83 130.245 240.726 130.248 240.725L130.594 240.615C130.873 240.324 131.471 239.645 131.923 239.108L132.353 238.621C132.736 238.185 133.059 237.663 133.496 237.304C134.308 236.635 135.158 236.009 136.045 235.458L136.541 235.149C137.177 234.968 137.914 234.864 138.178 234.92C138.441 234.975 139.314 235.542 139.574 235.72C139.836 235.897 140.886 236.26 141.322 236.14L141.734 236.202C142.216 236.274 142.467 237.143 143.145 236.812L143.492 236.644C143.554 237.114 143.741 237.657 143.909 237.851C144.076 238.045 144.937 238.656 145.331 238.917L145.64 239.218L145.95 239.522C146.269 239.958 146.71 240.223 146.932 240.109C147.154 239.995 147.997 239.884 148.152 240.198C148.307 240.512 148.832 241.349 148.888 241.185C148.944 241.022 149.165 240.733 149.296 240.772L149.376 240.863C149.475 240.976 149.555 241.137 149.592 241.287C149.918 242.636 150.992 242.636 151.847 242.991C152.474 243.252 152.563 243.269 152.171 243.891L151.722 244.601C152.178 244.567 152.551 244.693 152.549 244.882C152.549 245.072 152.87 245.578 152.962 245.441L153.01 245.299L153.275 244.509C153.736 244.876 154.919 245.819 155.903 246.609L156.786 247.344C157.058 247.571 157.411 247.829 157.516 248.137C157.786 248.931 158.401 249.384 158.907 249.884L159.285 250.258C159.439 250.704 159.686 251.137 159.834 251.218L159.974 251.262C160.151 251.319 160.448 251.287 160.498 251.391C161.01 252.451 161.903 253.111 162.588 253.966L163.227 254.759C163.869 255.748 164.807 257.115 165.313 257.796L165.82 258.263C166.247 258.661 166.573 258.776 166.465 259.493L166.391 259.974C166.907 260.359 167.274 260.935 167.209 261.252C167.142 261.569 168.008 261.799 168.242 261.811C168.473 261.822 168.727 262.848 168.943 263.335L169.485 263.299L169.611 263.29C169.814 263.403 169.825 263.055 169.631 262.512C169.439 261.968 169.007 260.447 168.54 260.156L168.631 259.513C168.713 258.952 168.753 258.354 168.674 257.777L168.603 257.268C168.368 256.714 167.88 256.023 167.517 255.734C167.155 255.442 166.639 252.734 165.724 250.886C164.81 249.04 162.259 243.866 162.249 243.396C162.24 242.925 160.986 242.196 160.734 241.97C160.483 241.745 160.111 240.012 159.726 239.263L159.232 238.661L158.682 237.988C158.199 237.178 157.364 235.982 156.825 235.333L156.791 234.554L156.776 234.192C156.974 233.808 156.7 233.661 156.165 233.862L155.989 232.968L155.819 232.12C155.273 231.401 154.478 230.077 154.053 229.174L153.178 228.688L152.878 228.521C152.743 227.777 152.179 226.38 151.629 225.416C151.075 224.451 149.104 222.358 149.204 222.241C149.305 222.121 149.292 221.746 149.021 221.589C148.751 221.433 148.026 220.742 147.457 220.412L147.495 220.203C147.671 219.254 147.033 218.802 146.587 218.206L146.532 218.132C146.59 217.959 146.233 217.325 145.74 216.726C145.245 216.127 143.662 213.937 143.183 213.336C142.702 212.734 141.473 210.702 141.536 210.146L140.719 210.12C140.387 210.11 139.945 209.514 139.655 209.103C139.34 208.654 139.159 208.099 138.886 207.61C138.783 207.429 138.588 207.207 138.424 207.174C137.68 207.024 137.293 206.436 137.079 205.744L136.83 204.933C136.217 204.401 134.931 202.927 133.975 201.659C133.019 200.39 129.429 196.135 128.352 194.812L127.407 193.575C126.728 192.683 126.153 191.689 125.102 191.267C124.933 191.198 124.659 190.852 124.679 190.809C125.025 190.112 124.356 189.932 124.077 189.658C123.288 188.89 122.469 188.241 121.888 187.169L121.461 186.38C120.549 185.81 119.491 184.911 119.108 184.383C118.726 183.853 117.064 182.373 116.551 181.981C116.041 181.59 114.682 180.015 114.309 179.637C113.937 179.261 111.42 176.857 109.543 175.025L107.832 173.366C107.625 173.165 107.426 172.883 107.192 172.8L106.43 172.529C105.807 171.898 105.03 171.212 104.702 171C104.375 170.791 103.501 169.623 103.184 169.388L102.863 169.253C102.316 169.023 101.819 168.818 101.554 168.103C101.443 167.802 101.073 167.569 100.796 167.352C100.396 167.039 99.8777 166.858 99.5825 166.466L98.3729 164.869C96.6569 163.796 94.728 162.43 94.0865 161.833C93.4441 161.237 91.3213 159.744 90.979 159.542C90.635 159.341 89.7509 158.26 89.4492 157.993C89.1482 157.728 87.8837 156.633 87.1957 156.231L86.581 155.855C86.4135 155.751 86.2188 155.538 86.171 155.348L85.9937 154.666C85.4623 154.296 83.851 152.977 82.415 151.736L81.3671 150.282C81.3256 150.227 81.2391 150.216 81.1844 150.168L80.3125 149.419C79.3903 148.526 78.2118 147.512 77.6897 147.169C77.17 146.826 75.5743 144.678 74.808 143.849C74.0434 143.019 71.1675 140.857 70.5502 140.232C69.9338 139.61 67.5671 136.989 66.6212 135.846L65.6133 135.148L64.7596 134.558C64.1899 133.681 63.4051 132.71 63.0158 132.4C62.6241 132.09 61.032 130.172 60.1885 129.186L59.3746 128.407C58.6474 127.711 58.6148 126.587 57.6058 126.068C56.9574 125.734 56.568 124.643 56.0213 123.927C54.945 122.507 53.8411 121.112 52.7439 119.709L52.6553 119.597C52.5337 119.493 51.7172 118.222 50.8404 116.77L50.0196 115.469C49.4941 114.636 48.9088 113.846 48.3674 113.027C47.8229 112.206 47.7163 111.05 46.7072 110.577C46.6083 110.531 46.5909 110.249 46.4869 110.168C45.8103 109.646 46.7051 108.528 45.5368 108.035L45.0521 107.83C44.696 106.832 44.4114 105.328 44.4206 104.49L43.7248 103.946L43.0975 103.457C43.0183 102.658 42.6162 101.42 42.2021 100.708L42.2674 99.8492C42.3014 99.4102 41.837 98.8434 41.5675 98.3524L41.3051 97.8757C41.548 97.5573 41.5755 96.9118 41.3654 96.4403L41.1473 96.0827C40.9736 95.8023 40.4885 95.6556 40.6765 95.2176C41.0138 94.4311 40.5755 93.783 40.3587 93.0292C40.0353 91.9085 39.9818 90.7253 39.8147 89.5684L39.7729 89.2782C39.737 88.9829 39.8631 88.7344 40.0532 88.7247C40.2417 88.7159 40.7399 88.65 40.7402 88.5959C40.7412 88.5434 40.5534 88.3142 40.3247 88.1998C40.0969 88.087 39.4333 87.2428 39.5421 86.6655L39.6962 86.2009L39.778 85.9551C39.9844 85.7433 40.0498 85.4979 39.9206 85.4084C39.793 85.3181 39.8136 84.856 40.0005 84.5962C40.1857 84.3373 40.6354 83.4593 40.4645 83.487C40.2945 83.5164 39.8402 83.4278 39.923 83.2135C40.0042 83 40.0466 82.0573 39.9946 81.5825L39.9196 81.1495C39.7341 80.056 39.8535 79.7729 40.8598 78.729L41.037 78.5462C41.166 78.1903 40.9187 77.9036 40.4863 77.9098L40.5577 77.3617L40.583 77.1609C40.5148 76.9222 39.8953 76.0794 39.2093 75.2907L38.5277 74.6496L37.1621 73.3666C35.6868 71.9161 34.0074 70.2328 33.4299 69.6262C32.8525 69.0195 30.81 66.8153 30.1871 66.0621C29.5634 65.3114 27.4924 62.8102 26.8654 62.2209C26.2394 61.6292 24.833 59.3822 24.4916 59.1358L24.3609 58.8334L23.892 57.7454C23.1181 56.7621 21.9054 55.1549 21.1978 54.1755C20.491 53.1937 18.4135 50.0705 17.9251 49.5939L17.7388 49.0781L17.5285 48.4928C17.1497 47.94 16.6447 47.2702 16.4044 47.002C16.1658 46.7329 14.4802 44.2016 12.9817 42.0998L12.2202 39.8275L12.0022 39.1762C11.6265 38.5499 10.9169 37.5875 10.4259 37.0384L10.0961 36.4504C9.70794 35.7526 9.3786 35.0186 9.02278 34.2982L8.70397 33.6527C8.34208 32.9494 7.81262 31.5289 7.52847 30.496L6.80363 29.6414L6.2372 28.9731C5.98317 27.8249 5.70153 26.499 5.61266 26.0252C5.52456 25.5529 4.73468 24.2602 4.63872 23.4403L3.7977 23.2447L3.70721 23.2252C3.61383 23.1033 3.33533 22.489 3.08826 21.8586C2.84032 21.2307 2.99647 19.1287 2.88287 18.6217L2.81264 18.1562L2.708 17.4448C2.23092 17.5997 1.80035 17.513 1.75072 17.2488C1.70188 16.9862 1.67834 15.6917 1.67238 14.9156L1.98004 14.5099L2.64404 13.6377C1.98858 13.4147 1.1726 12.5728 0.830747 11.7673L1.34664 11.0571C1.4367 10.9329 1.42544 10.5491 1.32458 10.433C0.499808 9.49781 1.31437 8.71212 1.21519 7.848C1.19255 7.66783 1.45916 7.30924 1.56674 7.33394C1.91712 7.41783 2.10488 7.44535 1.90968 6.96616C1.82073 6.74409 1.64388 6.53715 1.60731 6.31617C1.55973 6.03093 1.68875 5.71699 1.60478 5.45042C1.42062 4.86766 1.74389 4.66577 2.06677 4.81572L2.83254 5.17391C2.77645 4.61533 2.76805 3.83847 2.81509 3.44672C2.86047 3.05582 2.55205 1.75967 2.89839 1.30221L3.21361 0.886701C3.60698 0.369142 4.19502 0.606767 4.71308 0.656536L4.79397 0.664958C4.89561 1.11425 4.52361 2.12429 3.96777 2.90904L3.50678 3.6591L3.47037 3.71973Z" fill="#044E09"/>
</svg>
